<svg width="864" height="95" viewBox="0 0 864 95" fill="none" xmlns="http://www.w3.org/2000/svg">
<path d="M0.600098 93V2.11999H58.2001V21.576H20.9521V37.832H50.5201V57.288H20.9521V73.544H58.2001V93H0.600098Z" fill="white"/>
<path d="M73.7251 93V2.11999H94.0771V93H73.7251Z" fill="white"/>
<path d="M129.609 93V21.576H106.441V2.11999H173.513V21.576H150.089V93H129.609Z" fill="white"/>
<path d="M268.151 93H250.615L206.327 36.808V93H185.975V2.11999H203.511L247.671 58.312V2.11999H268.151V93Z" fill="white"/>
<path d="M311.926 93V54.728L278.774 2.11999H302.454L322.038 34.888L341.878 2.11999H365.558L332.406 54.856V93H311.926Z" fill="white"/>
<path d="M418.684 93L390.396 2.11999H411.9L428.412 59.976L446.076 2.11999H463.996L481.66 60.104L498.172 2.11999H519.932L491.644 93H473.212L455.036 33.224L436.988 93H418.684Z" fill="white"/>
<path d="M551.265 66.76C556.47 72.136 562.742 74.824 570.081 74.824C577.42 74.824 583.649 72.136 588.769 66.76C593.889 61.384 596.449 54.984 596.449 47.56C596.449 40.136 593.889 33.736 588.769 28.36C583.649 22.984 577.42 20.296 570.081 20.296C562.742 20.296 556.47 22.984 551.265 28.36C546.145 33.736 543.585 40.136 543.585 47.56C543.585 54.984 546.145 61.384 551.265 66.76ZM603.233 80.712C594.102 89.928 583.052 94.536 570.081 94.536C557.11 94.536 546.017 89.9707 536.801 80.84C527.67 71.624 523.105 60.5307 523.105 47.56C523.105 34.5893 527.67 23.5387 536.801 14.408C546.017 5.19199 557.11 0.583984 570.081 0.583984C583.052 0.583984 594.102 5.19199 603.233 14.408C612.449 23.624 617.057 34.6747 617.057 47.56C617.057 60.4453 612.449 71.496 603.233 80.712Z" fill="white"/>
<path d="M631.1 93V2.11999H666.94C675.303 2.11999 682.087 4.76532 687.292 10.056C692.497 15.3467 695.1 21.832 695.1 29.512C695.1 40.9467 689.169 48.7547 677.308 52.936L709.436 93H684.988L654.652 55.496H651.452V93H631.1ZM651.452 38.216H664.508C667.58 38.216 670.055 37.4053 671.932 35.784C673.895 34.1627 674.876 32.072 674.876 29.512C674.876 26.7813 673.895 24.648 671.932 23.112C670.055 21.576 667.58 20.808 664.508 20.808H651.452V38.216Z" fill="white"/>
<path d="M715.85 93V2.11999H736.202V73.544H773.834V93H715.85Z" fill="white"/>
<path d="M786.475 93V2.11999H817.451C830.251 2.11999 841.174 6.55732 850.219 15.432C859.264 24.3067 863.787 35.016 863.787 47.56C863.787 60.104 859.264 70.8133 850.219 79.688C841.174 88.5627 830.251 93 817.451 93H786.475ZM806.827 74.312H817.451C824.96 74.312 831.104 71.752 835.883 66.632C840.747 61.4267 843.179 55.0693 843.179 47.56C843.179 40.0507 840.747 33.736 835.883 28.616C831.104 23.4107 824.96 20.808 817.451 20.808H806.827V74.312Z" fill="white"/>
</svg>
