<svg viewBox="0 0 1526 630" xmlns="http://www.w3.org/2000/svg"><g fill-rule="nonzero"><path d="M426.306 169.543c9.754 20.718 11.115 45.202 4.876 67.068-26.541 93.031-165.556 117.279-267.641 131.634-42.968 6.042-53.127-58.38-10.376-65.855 353.603-61.817 200.445-174.304-89.261-150.936-37.927 3.059-59.803-18.393-62.811-47.832-3.384-33.121 22.239-64.204 66.761-57.059 128.472 20.62 313.466 27.43 358.452 122.98"></path><path d="M151.224 499.848c258.517-38.533 325.544-158.468 25.264-138.99-37.822 2.453-45.115-51.864-8.07-59.447 75.204-15.392 205.392-29.175 260.823 36.935 31.279 37.306 30.061 91.834-11.683 132.821-54.977 53.979-175.15 93.55-247.173 119.752-24.317 8.847-52.528-2.637-61.945-26.739-15.546-39.788 10.582-59.532 42.784-64.332"></path><path d="M242.292 242.716c5.041 88.456 27.318 233.019 43.438 351.928 5.12 37.772-48.945 48.637-58.82 11.823-31.537-117.567-57.513-231.991-76.848-352.136-4.874-30.291 11.019-53.91 36.351-58.808 43.656-8.442 54.613 24.989 55.879 47.193M933.837 155.505c14.39-43.867 56.548-50.898 81.624-28.631 27.32 24.259 31.838 93.215 70.224 193.17 16.316 42.486 54.8 113.011 56.33 114.985-8.39-13.928-39.244-17.02-53.428.666-2.062 2.942-1.648 2.43-1.464 2.038 16.83-34.92 34.71-225.307 20.798-378.287-3.21-35.316 17.41-55.587 45.003-58.835 31.584-3.717 64.676 22.344 58.797 56.446-33.129 192.146-19.538 339.081-40.949 404.604-20.355 62.289-76.543 58.722-100.495 21.629-14.157-21.924-28.825-71.705-40.757-104.865-22.976-63.851-56.41-123.195-75.975-188.416 17.787-6.551 59.327-4.327 59.263-4.192-25.243 50.973-31.413 183.553-4.895 264.974 8.015 24.606-2.54 48.195-23.442 56.062-24.995 9.409-54.13-10.583-54.899-39.854-1.252-47.753-20.155-237.048 4.265-311.494M797.56 114.35c10.879 20.167 39.422 26.441 57.003 12.973.136-.106-145.24 207.255-128.525 414 5.413 66.97-92.298 78.812-100.876 11.723-7.563-59.128 95.206-338.417 114.34-382.023 27.69-63.105 47.705-113.966 80.545-121.546 16.963-3.916 35.848 1.012 47.257 14.352 38.816 45.39-6.005 201.614 40.496 376.054 6.723 25.224-5.941 47.53-27.378 53.447-24.688 6.813-51.742-12.348-51.759-41.732-.11-181.73-31.173-337.384-31.103-337.248M660.226 212.43c-35.213.589-121.124-3.81-159.836-7.84-57.284-5.966-49.41-96.553 7.396-86.535 40.376 7.12 105.375 20.777 152.44 27.71 44.747 6.59 40.441 65.99 0 66.666"></path><path d="M849.994 360.96c33.739 3.973 29.77 54.013-3.95 53.186-85.402-2.092-218.558 10.637-309.355 49.092-25.239 10.688-52.042 1.121-61.518-20.893-10.132-23.538 1.442-51.91 32.154-59.636 31.101-7.823 141.229-45.474 342.669-21.75M622.996 256.53c14.796 1.492 30.25 8.71 27.899 32.915-1.444 14.856-13.478 26.126-27.899 27.085-44.101 2.932-65.627 3.95-116.57 14.535-21.702 4.508-42.847-9.454-47.46-31.134-5.103-23.99 13.19-47.462 37.66-48.266 65.897-2.164 111.797 3.394 126.37 4.865M1518.543 122.655c31.082 48.684-51.494 101.795-141.042 172.473-76.594 60.454-148.798 130.558-155.615 139.327 15.33-17.99 3.824-55.755-25.05-62.195 24.983 5.872 160.113 54.63 275.84 80.66 29.647 6.668 47.729 36.824 40.673 62.752-8.822 32.419-51.391 44.19-81.064 28.727-119.434-62.241-205.568-70.71-260.839-84.896-30.053-7.713-38.488-44.373-22.827-70.705 13.836-23.266 60.106-54.706 93.947-80.247 133.787-100.975 197.772-185.157 204.59-185.157 23.56 0 34.557 48.012 23.271 51.845-19.373 6.58-104.022 35.524-207.309 31.848-40.293-1.433-48.997-58.852-3.253-66.587 176.809-29.893 228.898-64.49 258.678-17.845"></path></g></svg>